<svg id="visual" viewBox="0 0 900 600" width="900" height="600" xmlns="http://www.w3.org/2000/svg" xmlns:xlink="http://www.w3.org/1999/xlink" version="1.1"><g transform="translate(396.5923281103137 328.6891697001248)"><path d="M192.5 -287.2C252.4 -261.1 305.9 -212.6 346.9 -150.3C388 -88 416.7 -12 394.2 47.8C371.8 107.5 298.1 151 237.6 187C177.1 223.1 129.7 251.6 81.7 255.2C33.7 258.7 -14.8 237.3 -74.9 230.8C-135 224.3 -206.5 232.6 -241.8 203.2C-277.1 173.8 -276.2 106.7 -283 42.2C-289.9 -22.2 -304.6 -84 -286.8 -134.4C-269.1 -184.7 -218.9 -223.6 -165.7 -252.8C-112.5 -282 -56.2 -301.5 5 -309.3C66.3 -317.2 132.6 -313.4 192.5 -287.2" fill="#A4161A"></path></g></svg>